<svg width="36" height="37" viewBox="0 0 36 37" fill="none" xmlns="http://www.w3.org/2000/svg">
<g clip-path="url(#clip0_1_99)">
<path d="M34.1811 20.2443L33.6831 20.199C32.9743 28.0035 26.796 34.1833 18.9915 34.8942L18.9871 34.8946C18.9875 34.8946 18.9863 34.8947 18.9832 34.8948L18.9706 34.895C18.915 34.895 18.8586 34.8737 18.8146 34.8334C18.7683 34.7904 18.7416 34.7292 18.7421 34.6638C18.7738 31.995 18.8857 29.7549 19.2405 27.8857C19.5944 26.0211 20.1842 24.5595 21.1477 23.4243C23.0683 21.1613 26.6247 20.0257 33.4383 19.9497C33.5317 19.9554 33.5903 19.9882 33.6237 20.0242C33.6669 20.0708 33.6889 20.1339 33.683 20.2001L34.1811 20.2443ZM34.1811 20.2443C34.1993 20.0389 34.1308 19.8356 33.9902 19.6841C33.8497 19.5326 33.6537 19.4576 33.4476 19.4495L18.476 35.2013C18.6115 35.3258 18.7885 35.395 18.9706 35.395C18.9924 35.395 19.015 35.3943 19.0369 35.3921C27.0817 34.6593 33.4505 28.2891 34.1811 20.2443ZM1.3753 17.3991L1.37639 17.4003C1.41872 17.4462 1.4796 17.473 1.54345 17.473H1.54346H1.54348H1.5435H1.54352H1.54353H1.54355H1.54357H1.54358H1.5436H1.54362H1.54364H1.54365H1.54367H1.54369H1.5437H1.54372H1.54374H1.54376H1.54377H1.54379H1.54381H1.54382H1.54384H1.54386H1.54387H1.54389H1.54391H1.54393H1.54394H1.54396H1.54398H1.54399H1.54401H1.54403H1.54405H1.54406H1.54408H1.5441H1.54411H1.54413H1.54415H1.54416H1.54418H1.5442H1.54422H1.54423H1.54425H1.54427H1.54428H1.5443H1.54432H1.54434H1.54435H1.54437H1.54439H1.5444H1.54442H1.54444H1.54446H1.54447H1.54449H1.54451H1.54452H1.54454H1.54456H1.54457H1.54459H1.54461H1.54463H1.54464H1.54466H1.54468H1.54469H1.54471H1.54473H1.54475H1.54476H1.54478H1.5448H1.54481H1.54483H1.54485H1.54486H1.54488H1.5449H1.54492H1.54493H1.54495H1.54497H1.54498H1.545H1.54502H1.54504H1.54505H1.54507H1.54509H1.5451H1.54512H1.54514H1.54516H1.54517H1.54519H1.54521H1.54522H1.54524H1.54526H1.54527H1.54529H1.54531H1.54533H1.54534H1.54536H1.54538H1.54539H1.54541H1.54543H1.54545H1.54546H1.54548H1.5455H1.54551H1.54553H1.54555H1.54556H1.54558H1.5456H1.54562H1.54563H1.54565H1.54567H1.54568H1.5457H1.54572H1.54574H1.54575H1.54577H1.54579H1.5458H1.54582H1.54584H1.54586H1.54587H1.54589H1.54591H1.54592H1.54594H1.54596H1.54597H1.54599H1.54601H1.54603H1.54604H1.54606H1.54608H1.54609H1.54611H1.54613H1.54615H1.54616H1.54618H1.5462H1.54621H1.54623H1.54625H1.54626H1.54628H1.5463H1.54632H1.54633H1.54635H1.54637H1.54638H1.5464H1.54642H1.54644H1.54645H1.54647H1.54649H1.5465H1.54652H1.54654H1.54656H1.54657H1.54659H1.54661H1.54662H1.54664H1.54666H1.54667H1.54669H1.54671H1.54673H1.54674H1.54676H1.54678H1.54679H1.54681H1.54683H1.54685H1.54686H1.54688H1.5469H1.54691H1.54693H1.54695H1.54696H1.54698H1.547H1.54702H1.54703H1.54705H1.54707H1.54708H1.5471H1.54712H1.54714H1.54715H1.54717H1.54719H1.5472H1.54722H1.54724H1.54726H1.54727H1.54729H1.54731H1.54732H1.54734H1.54736H1.54737H1.54739H1.54741H1.54743H1.54744H1.54746H1.54748H1.54749H1.54751H1.54753H1.54755H1.54756H1.54758H1.5476H1.54761H1.54763H1.54765H1.54766H1.54768H1.5477H1.54772H1.54773H1.54775H1.54777H1.54778H1.5478H1.54782H1.54784H1.54785H1.54787H1.54789H1.5479H1.54792H1.54794H1.54796H1.54797H1.54799H1.54801H1.54802H1.54804H1.54806H1.54807H1.54809H1.54811H1.54813H1.54814H1.54816H1.54818H1.54819H1.54821H1.54823H1.54825H1.54826H1.54828H1.5483H1.54831H1.54833H1.54835H1.54836H1.54838H1.5484H1.54842H1.54843H1.54845H1.54847H1.54848H1.5485H1.54852H1.54854H1.54855H1.54857H1.54859H1.5486H1.54862H1.54864H1.54866H1.54867H1.54869H1.54871H1.54872H1.54874H1.54876H1.54877H1.54879H1.54881H1.54883H1.54884H1.54886H1.54888H1.54889H1.54891H1.54893H1.54895H1.54896H1.54898H1.549H1.54901H1.54903H1.54905H1.54906H1.54908H1.5491H1.54912H1.54913H1.54915H1.54917H1.54918H1.5492H1.54922H1.54924H1.54925H1.54927H1.54929H1.5493H1.54932H1.54934C8.3477 17.3945 11.8951 16.2579 13.8108 13.9944C14.7715 12.8594 15.3597 11.3984 15.7129 9.5347C16.067 7.6667 16.179 5.42819 16.211 2.76157L1.3753 17.3991ZM1.3753 17.3991C1.33209 17.3525 1.3101 17.2894 1.31597 17.2232L0.817924 17.179L1.31588 17.2242M1.3753 17.3991L1.31588 17.2242M1.31588 17.2242C2.02182 9.4419 8.18026 3.26283 15.9596 2.53119M1.31588 17.2242L15.9596 2.53119M15.9596 2.53119C16.0245 2.5253 16.0894 2.54687 16.1381 2.59094C16.1847 2.6344 16.2115 2.69632 16.211 2.76087L15.9596 2.53119ZM33.6228 17.3986L33.6226 17.3988C33.5793 17.4458 33.5187 17.4723 33.4556 17.4723H33.4555H33.4555H33.4555H33.4554H33.4554H33.4554H33.4553H33.4553H33.4553H33.4552H33.4552H33.4552H33.4551H33.4551H33.4551H33.455H33.455H33.455H33.4549H33.4549H33.4549H33.4548H33.4548H33.4548H33.4547H33.4547H33.4547H33.4546H33.4546H33.4546H33.4545H33.4545H33.4545H33.4544H33.4544H33.4544H33.4543H33.4543H33.4543H33.4542H33.4542H33.4542H33.4541H33.4541H33.4541H33.4541H33.454H33.454H33.454H33.4539H33.4539H33.4539H33.4538H33.4538H33.4538H33.4537H33.4537H33.4537H33.4536H33.4536H33.4536H33.4536H33.4535H33.4535H33.4535H33.4534H33.4534H33.4534H33.4533H33.4533H33.4533H33.4532H33.4532H33.4532H33.4532H33.4531H33.4531H33.4531H33.453H33.453H33.453H33.4529H33.4529H33.4529H33.4528H33.4528H33.4528H33.4527H33.4527H33.4527H33.4527H33.4526H33.4526H33.4526H33.4525H33.4525H33.4525H33.4524H33.4524H33.4524H33.4523H33.4523H33.4523H33.4522H33.4522H33.4522H33.4521H33.4521H33.4521H33.452H33.452H33.452H33.4519H33.4519H33.4519H33.4519H33.4518H33.4518H33.4518H33.4517H33.4517H33.4517H33.4516H33.4516H33.4516H33.4515H33.4515H33.4515H33.4514H33.4514H33.4514H33.4513H33.4513H33.4513H33.4512H33.4512H33.4512H33.4511H33.4511H33.4511H33.451H33.451H33.451H33.4509H33.4509H33.4509H33.4508H33.4508H33.4508H33.4507H33.4507H33.4507H33.4506H33.4506H33.4506H33.4506H33.4505H33.4505H33.4505H33.4504H33.4504H33.4504H33.4503C26.6289 17.3975 23.0692 16.2619 21.1473 13.9975C20.1837 12.8623 19.5939 11.4007 19.2399 9.53607C18.885 7.66691 18.773 5.42677 18.7414 2.75803C18.7409 2.69237 18.7677 2.631 18.8144 2.58794L18.8153 2.58707C18.8581 2.54735 18.9228 2.52296 18.9947 2.52798C26.7972 3.24057 32.9735 9.42004 33.6831 17.2224C33.6887 17.2872 33.6668 17.3509 33.6228 17.3986ZM1.49554 19.9457L1.52055 19.9485L1.54571 19.9488C8.34635 20.027 11.8945 21.1636 13.8104 23.4273C14.771 24.5623 15.3591 26.0232 15.7123 27.8868C16.0663 29.7547 16.1783 31.9931 16.2103 34.6595C16.211 34.7246 16.184 34.787 16.1369 34.8307C16.0935 34.8703 16.0381 34.8914 15.9818 34.8914C15.9691 34.8914 15.9629 34.8909 15.9615 34.8908L15.9601 34.8907C8.18074 34.1593 2.02145 27.9804 1.31521 20.1983C1.30955 20.1333 1.33141 20.0695 1.37545 20.0218L1.37633 20.0208C1.41565 19.978 1.44466 19.959 1.46104 19.9512C1.47247 19.9458 1.48041 19.944 1.49554 19.9457Z" stroke="white"/>
</g>
<defs>
<clipPath id="clip0_1_99">
<rect x="-0.00012207" y="0.5" width="36" height="36" rx="18" fill="white"/>
</clipPath>
</defs>
</svg>
