<svg width="35" height="35" viewBox="0 0 35 35" fill="none" xmlns="http://www.w3.org/2000/svg">
<path d="M28 7.00011C26.664 5.65731 24.7539 4.72455 23 4.00011C21.2461 3.27567 19.899 2.99353 18 3.00011C10.0432 3.00011 3 9.08314 3 17.0001C3 19.5376 3.74673 22.8251 5 25.0001L3 32.0001L11 30.0001C13.1131 31.1456 15.5809 32.0001 18 32.0001C25.9568 32.0001 32 24.9171 32 17.0001C32 13.1576 30.7251 9.7116 28 7.00011ZM18 29.0001C15.8432 29.0001 12.8508 29.0876 11 28.0001V27.0001L6 29.0001L8 24.0001H7C5.80174 22.0962 6.00166 19.2465 6 17.0001C6 10.4171 11.3839 5.00011 18 5.00011C21.206 5.00011 23.7412 6.73812 26 9.00011C27.1184 10.1079 28.3971 11.549 29 13.0001C29.6029 14.4512 30.0059 15.4299 30 17.0001C30.0291 23.5831 24.6161 29.0001 18 29.0001ZM24 20.0001C23.6357 19.8261 22.3206 19.1306 22 19.0001C21.6648 18.8841 21.2477 18.6521 21 19.0001C20.7523 19.3626 20.204 20.7681 20 21.0001C19.796 21.2466 19.3643 21.1886 19 21.0001C18.6357 20.8261 17.3698 20.2181 16 19.0001C14.9216 18.0431 14.2186 17.3626 14 17.0001C13.796 16.6376 13.8106 16.1886 14 16.0001C14.1603 15.8406 14.8251 15.2031 15 15.0001C14.8834 15.2321 15.1749 14.7971 15 15.0001C15.1166 14.7536 15.0874 14.1741 15 14.0001C14.9126 13.8261 14.2915 11.7251 14 11.0001C13.7085 10.3041 13.2186 11.0146 13 11.0001H12C11.7523 11.0001 11.3352 10.6376 11 11.0001C10.6794 11.3626 10 12.2311 10 14.0001C10 15.7691 11.8251 17.7681 12 18.0001C12.1749 18.2466 14.3859 21.4486 18 23.0001C18.8598 23.3771 19.4754 23.8406 20 24.0001C20.8598 24.2756 21.3734 24.0871 22 24.0001C22.6995 23.8986 24.7085 23.8411 25 23.0001C25.306 22.1591 25.102 21.1596 25 21.0001C24.898 20.8406 24.3643 20.1741 24 20.0001Z" fill="#185CFF"/>
</svg>
