<svg width="35" height="35" viewBox="0 0 35 35" fill="none" xmlns="http://www.w3.org/2000/svg">
<path d="M30 23C29.3788 22.6919 26.5466 21.2312 26 21C25.4285 20.7946 24.4224 20.3837 24 21C23.5776 21.642 22.3478 23.5892 22 24C21.6522 24.4366 21.6212 24.3339 21 24C20.3788 23.6919 18.3356 23.1572 16 21C14.1614 19.3051 12.3727 16.642 12 16C11.6522 15.358 12.677 15.3339 13 15C13.2733 14.7176 13.7018 14.3596 14 14C14.2982 13.6405 13.8012 13.4109 14 13C14.1988 12.5635 14.1491 12.3082 14 12C13.8509 11.6919 12.4969 8.28406 12 7.00004C11.5031 5.76738 11.3727 6.02572 11 6.00004H10C9.57761 6.00004 8.57146 6.35803 8 7.00004C7.45338 7.64205 6 8.86703 6 12C6 15.133 8.70184 18.5892 9 19C9.29816 19.4366 12.8381 25.2522 19 28C20.4659 28.6677 22.1055 29.7176 23 30C24.4659 30.488 24.9316 30.1541 26 30C27.1926 29.8203 30.5031 28.4895 31 27C31.5218 25.5106 31.1739 24.2825 31 24C30.8261 23.7176 30.6212 23.3082 30 23Z" fill="white"/>
<path d="M26.4573 19.9186L26.4276 19.906L26.3972 19.8951C26.3722 19.8862 26.3436 19.8757 26.3118 19.864C26.0512 19.7682 25.5743 19.593 25.1031 19.5286C24.5872 19.458 23.6283 19.4654 23.0315 20.3363L23.0252 20.3454L23.0191 20.3547C22.9198 20.5057 22.7657 20.7445 22.5894 21.0177C22.4013 21.3093 22.1879 21.64 21.9889 21.9448C21.747 22.3153 21.5308 22.6404 21.3683 22.8766C21.2328 22.8164 21.0777 22.7542 20.9044 22.6847C19.9726 22.3111 18.5186 21.7279 16.7966 20.1375L16.7958 20.1367C15.4795 18.9233 14.1641 17.1437 13.4663 16.1122C13.5756 16.0467 13.7133 15.9514 13.8438 15.8165C13.9224 15.7352 14.0114 15.6515 14.1267 15.5432C14.1785 15.4944 14.2357 15.4407 14.2996 15.3799C14.4829 15.2057 14.7075 14.9862 14.9038 14.7495C15.1388 14.4662 15.2794 14.1158 15.2717 13.7267C15.2676 13.5183 15.2186 13.3355 15.1774 13.2148C15.2645 12.9614 15.315 12.6925 15.3037 12.4054C15.2883 12.0173 15.163 11.7081 15.0572 11.4893C15.0575 11.49 15.0576 11.4901 15.0574 11.4897C15.0566 11.4878 15.0502 11.4739 15.0363 11.4417C15.0207 11.4055 15.0003 11.3573 14.9751 11.297C14.9249 11.1767 14.8594 11.0171 14.7822 10.8271C14.6279 10.4476 14.4302 9.95532 14.221 9.43094C13.8024 8.38158 13.3414 7.21285 13.095 6.57627L13.092 6.56863L13.089 6.56104C12.9565 6.23247 12.8299 5.95547 12.6986 5.73221C12.5737 5.51971 12.3883 5.25653 12.0975 5.06573C11.7556 4.8414 11.4235 4.81609 11.2217 4.81985C11.1787 4.82065 11.1407 4.82281 11.1169 4.82426C11.1011 4.82521 11.0926 4.82577 11.0862 4.82619C11.079 4.82665 11.0744 4.82695 11.0655 4.82744C11.0649 4.82747 11.0644 4.8275 11.0639 4.82753L11.0404 4.82591H11H10C9.55173 4.82591 9.01933 4.98743 8.57254 5.18926C8.10122 5.40218 7.55197 5.73743 7.12298 6.21939L7.11438 6.22904L7.10601 6.23888C7.07345 6.27712 7.02699 6.32766 6.96979 6.38989C6.69893 6.68458 6.18707 7.24145 5.76829 7.99633C5.23794 8.95233 4.82587 10.2384 4.82587 12C4.82587 13.8642 5.61534 15.7222 6.35736 17.083C7.03722 18.3297 7.75314 19.2909 7.98889 19.6075C8.00934 19.6349 8.02618 19.6576 8.03907 19.6751C8.05308 19.6961 8.07314 19.7271 8.0992 19.7673C8.68825 20.6761 12.3431 26.3152 18.5175 29.0704C19.1245 29.3472 19.7667 29.6954 20.4069 30.0425C20.4899 30.0875 20.5729 30.1325 20.6558 30.1773C21.3227 30.5379 22.0613 30.9332 22.6373 31.1168C23.4939 31.401 24.1403 31.4694 24.7617 31.4095C25.0496 31.3818 25.3107 31.3282 25.527 31.2829C25.5444 31.2793 25.5616 31.2757 25.5786 31.2721C25.7832 31.2292 25.9615 31.1919 26.1676 31.1622L26.1676 31.1622L26.175 31.1611C26.9394 31.0458 28.1918 30.6118 29.3035 30.0324C29.8703 29.737 30.4483 29.3796 30.9346 28.9687C31.4002 28.5754 31.8858 28.0464 32.1107 27.381C32.43 26.4656 32.4862 25.6217 32.4311 24.9512C32.3796 24.3251 32.2207 23.7432 31.9998 23.3845C31.9869 23.3635 31.9727 23.3397 31.9571 23.3134C31.7775 23.0122 31.4043 22.386 30.5218 21.9482C30.3712 21.8735 30.0452 21.7076 29.6386 21.5007C28.5507 20.9471 26.8857 20.0998 26.4573 19.9186Z" stroke="#185CFF" stroke-width="2.34827"/>
</svg>
