<svg width="42" height="43" viewBox="0 0 42 43" fill="none" xmlns="http://www.w3.org/2000/svg">
<path d="M26.0837 23.4925L26.0837 23.4925C26.9814 22.8 27.8439 22.6063 28.588 22.7904C29.3156 22.9704 29.8354 23.4893 30.1045 24.036M26.0837 23.4925L30.1054 24.0378C30.1051 24.0372 30.1048 24.0366 30.1045 24.036M26.0837 23.4925L26.0774 23.4974M26.0837 23.4925L26.0774 23.4974M30.1045 24.036C30.3195 24.4664 30.4409 24.8817 30.4367 25.292C30.4324 25.7109 30.2977 26.083 30.0687 26.421C29.6364 27.0591 28.8361 27.6122 27.8759 28.2246M30.1045 24.036L27.8759 28.2246M27.8759 28.2246C26.4717 29.1217 24.6912 29.5744 23.273 29.7931L23.7856 30.3187L28.3764 34.9095C29.2652 35.7983 29.2911 37.2307 28.3907 38.1002M27.8759 28.2246L28.3907 38.1002M26.0774 23.4974C25.0679 24.3022 23.7311 24.7213 22.61 24.9346C22.0553 25.0402 21.5663 25.0931 21.2168 25.1194C21.0424 25.1326 20.9034 25.1391 20.8092 25.1423C20.7621 25.1439 20.7262 25.1447 20.7028 25.1451L20.6771 25.1454L20.6715 25.1455L20.6713 25.1455H20.6713H20.6711H20.6707H20.6706H20.6706L20.6704 25.1455L20.6648 25.1454L20.6391 25.1451C20.6157 25.1447 20.5798 25.1439 20.5327 25.1423C20.4385 25.1391 20.2995 25.1326 20.125 25.1194C19.7756 25.0931 19.2866 25.0402 18.7319 24.9346C17.6107 24.7213 16.2739 24.3022 15.2645 23.4974L15.2645 23.4974M26.0774 23.4974L15.2645 23.4974M15.2645 23.4974L15.2582 23.4925M15.2645 23.4974L15.2582 23.4925M15.2582 23.4925C14.3604 22.8 13.498 22.6063 12.7539 22.7904C12.0262 22.9704 11.5064 23.4894 11.2373 24.0362C11.0223 24.4665 10.901 24.8818 10.9052 25.292C10.9095 25.7109 11.0442 26.083 11.2732 26.421C11.7054 27.059 12.5054 27.6119 13.4653 28.2242C14.8833 29.1347 16.6882 29.5799 18.1189 29.8023L17.6063 30.3149L17.6047 30.3165L17.4975 30.4228C15.7802 32.125 14.1284 33.7623 12.9939 34.9119L12.9924 34.9134M15.2582 23.4925L12.9924 34.9134M12.9924 34.9134C12.1209 35.8043 12.0983 37.2371 12.9873 38.105L13.1893 38.3358L13.2003 38.3483M12.9924 34.9134L13.2003 38.3483M13.2003 38.3483L13.2121 38.3601M13.2003 38.3483L13.2121 38.3601M13.2121 38.3601C14.1009 39.249 15.558 39.249 16.4469 38.3601L16.4475 38.3595M13.2121 38.3601L16.4475 38.3595M16.4475 38.3595L20.6744 34.1183C22.3135 35.7324 23.8481 37.267 24.9412 38.3601C25.8322 39.2511 27.271 39.2455 28.1721 38.364L28.1925 38.344M16.4475 38.3595L28.1925 38.344M28.1925 38.344L28.2105 38.3219M28.1925 38.344L28.2105 38.3219M28.2105 38.3219L28.3907 38.1002M28.2105 38.3219L28.3907 38.1002M20.6709 9.38639C22.5231 9.38639 24.0241 10.8901 24.0241 12.7242C24.0241 14.5724 22.5244 16.062 20.6709 16.062C18.8175 16.062 17.3177 14.5724 17.3177 12.7242C17.3177 10.8901 18.8188 9.38639 20.6709 9.38639ZM20.6709 21.0231C25.2627 21.0231 28.9698 17.3159 28.9698 12.7242C28.9698 10.5232 28.0955 8.41233 26.5391 6.85598C24.9828 5.29964 22.8719 4.42529 20.6709 4.42529C18.4699 4.42529 16.3591 5.29964 14.8027 6.85598C13.2464 8.41233 12.372 10.5232 12.372 12.7242C12.372 17.3159 16.0792 21.0231 20.6709 21.0231Z" stroke="white"/>
</svg>
