<svg width="45" height="45" viewBox="0 0 45 45" fill="none" xmlns="http://www.w3.org/2000/svg">
<path d="M28.4022 22.916C28.5413 22.8233 28.6249 22.6672 28.6249 22.5C28.6249 22.3328 28.5413 22.1767 28.4022 22.084L19.9647 16.459C19.8113 16.3567 19.614 16.3472 19.4514 16.4342C19.2889 16.5212 19.1874 16.6906 19.1874 16.875V28.125C19.1874 28.3094 19.2889 28.4788 19.4514 28.5658C19.614 28.6528 19.8113 28.6433 19.9647 28.541L28.4022 22.916Z" stroke="white" stroke-linecap="round" stroke-linejoin="round"/>
<path d="M4.68341 32.5028L4.6839 32.5047C4.81508 33.0098 5.06312 33.477 5.40803 33.8686C5.75294 34.2602 6.18506 34.5653 6.66954 34.7592L6.66952 34.7593L6.67689 34.7621C9.68995 35.9134 13.6595 36.4668 16.8438 36.7356C18.4423 36.8706 19.8551 36.9347 20.8685 36.9652C21.3754 36.9804 21.7827 36.9872 22.0639 36.9901C22.2045 36.9916 22.3135 36.9922 22.3878 36.9923L22.4725 36.9924L22.4946 36.9923L22.4994 36.9923H22.5003L22.5052 36.9923L22.5272 36.9924L22.612 36.9923C22.6862 36.9922 22.7953 36.9916 22.9359 36.9901C23.217 36.9872 23.6244 36.9804 24.1312 36.9652C25.1447 36.9347 26.5574 36.8706 28.156 36.7356C31.3403 36.4668 35.3098 35.9134 38.3229 34.7621L38.3229 34.7622L38.3302 34.7592C38.8147 34.5653 39.2468 34.2602 39.5917 33.8686C39.9366 33.477 40.1847 33.0098 40.3159 32.5047L40.3163 32.5028C40.7326 30.874 41.2811 27.7731 41.2811 22.5001C41.2811 17.2271 40.7326 14.1262 40.3163 12.4974L40.3159 12.4955C40.1847 11.9904 39.9366 11.5232 39.5917 11.1316C39.2468 10.74 38.8147 10.4349 38.3302 10.241L38.3302 10.2409L38.3229 10.2381C35.3098 9.08686 31.3403 8.53342 28.156 8.26457C26.5574 8.12961 25.1447 8.06548 24.1312 8.03506C23.6244 8.01985 23.217 8.01306 22.9359 8.01007C22.7953 8.00858 22.6862 8.00804 22.612 8.00788L22.5272 8.00784L22.5052 8.00789L22.5003 8.00791H22.4994L22.4946 8.00789L22.4725 8.00784L22.3878 8.00788C22.3135 8.00804 22.2045 8.00858 22.0639 8.01007C21.7827 8.01306 21.3754 8.01985 20.8685 8.03506C19.8551 8.06548 18.4423 8.12961 16.8438 8.26457C13.6595 8.53342 9.68995 9.08686 6.67689 10.2381L6.67686 10.2381L6.66954 10.241C6.18506 10.4349 5.75294 10.74 5.40803 11.1316C5.06312 11.5232 4.81508 11.9904 4.6839 12.4955L4.6839 12.4955L4.68342 12.4974C4.26716 14.1262 3.71863 17.2271 3.71863 22.5001C3.71863 27.7731 4.26716 30.874 4.68341 32.5028Z" stroke="white" stroke-linecap="round" stroke-linejoin="round"/>
</svg>
