<svg width="36" height="36" viewBox="0 0 36 36" fill="none" xmlns="http://www.w3.org/2000/svg">
<path d="M7.16097 24.8754C5.54638 22.1513 4.58442 19.0518 5.17551 15.9408C5.7666 12.8299 7.638 9.94103 10.1392 7.99898C12.6403 6.05692 15.9133 4.82273 19.0737 5.02079C22.2341 5.21885 25.7692 6.75258 28.0083 8.99171C30.2474 11.2308 31.7811 14.7659 31.9792 17.9263C32.1773 21.0867 30.9431 24.3597 29.001 26.8608C27.059 29.362 24.1701 31.2334 21.0592 31.8245C17.9482 32.4156 14.8487 31.4536 12.1246 29.839V29.839L7.16097 30.8318C6.97659 30.8857 6.35435 30.8794 6.16824 30.8318C5.98212 30.7842 6.30408 30.9676 6.16824 30.8318C6.0324 30.6959 6.21585 31.0179 6.16824 30.8318C6.12063 30.6456 6.11431 30.0234 6.16824 29.839L7.16097 24.8754Z" stroke="white" stroke-width="2" stroke-linecap="round" stroke-linejoin="round"/>
<path d="M20.9635 26C19.5258 26.0036 18.3058 25.5518 16.9768 25.0033C15.6478 24.4548 14.0067 24.0266 12.9901 23.0099C11.9734 21.9933 11.5452 20.3522 10.9967 19.0232C10.4482 17.6942 9.99642 16.4742 10 15.0365C10.0036 14.0246 10.2799 12.7607 10.9967 12.0464C11.7135 11.3322 12.9748 11.0498 13.9867 11.0498V11.0498C14.1537 11.0484 13.8425 10.9656 13.9867 11.0498C14.131 11.1339 14.9024 10.9038 14.9834 11.0498L15.9801 14.0398C16.0751 14.2092 15.9825 14.8423 15.9801 15.0365C15.9777 15.2307 16.0793 14.8695 15.9801 15.0365L14.9834 18.0265C15.641 19.4895 16.5105 20.359 17.9735 21.0166L20.9635 20.0199C21.1305 19.9207 20.7693 20.0223 20.9635 20.0199C21.1577 20.0175 21.7908 19.9249 21.9602 20.0199L24.9502 21.0166C25.0962 21.0976 24.8661 21.869 24.9502 22.0133C25.0344 22.1575 24.9516 21.8463 24.9502 22.0133C24.9467 23.0241 24.667 24.2873 23.9536 25.0033C23.2401 25.7193 21.9743 25.9928 20.9635 26V26Z" stroke="white" stroke-width="2" stroke-linecap="round" stroke-linejoin="round"/>
</svg>
