<svg width="30" height="29" viewBox="0 0 30 29" fill="none" xmlns="http://www.w3.org/2000/svg">
<path d="M25.545 14.8626C25.5453 14.699 25.5093 14.5374 25.4396 14.3895C25.3699 14.2416 25.2682 14.1109 25.1419 14.0071L20.8702 9.74405C20.6663 9.5404 20.3899 9.42601 20.1017 9.42601C19.8135 9.42601 19.5371 9.5404 19.3332 9.74405C19.2324 9.84477 19.1525 9.96435 19.098 10.096C19.0435 10.2276 19.0154 10.3686 19.0154 10.5111C19.0154 10.6536 19.0435 10.7946 19.098 10.9262C19.1525 11.0579 19.2324 11.1774 19.3332 11.2782L21.8243 13.7751L6.33249 13.7751C6.04407 13.7751 5.76746 13.8896 5.56352 14.0936C5.35957 14.2975 5.24499 14.5741 5.24499 14.8626C5.24499 15.151 5.35957 15.4276 5.56352 15.6315C5.76746 15.8355 6.04407 15.9501 6.3325 15.9501L21.8388 15.9501L19.3259 18.447C19.225 18.5477 19.1449 18.6674 19.0902 18.7991C19.0356 18.9309 19.0074 19.0721 19.0074 19.2147C19.0074 19.3574 19.0356 19.4986 19.0902 19.6303C19.1449 19.7621 19.225 19.8818 19.3259 19.9825C19.4269 20.0836 19.5469 20.1637 19.6788 20.2184C19.8108 20.2731 19.9523 20.3013 20.0952 20.3013C20.238 20.3013 20.3795 20.2731 20.5115 20.2184C20.6435 20.1637 20.7634 20.0836 20.8644 19.9825L25.226 15.6267C25.3278 15.5273 25.4085 15.4084 25.4633 15.2771C25.5181 15.1458 25.5459 15.0048 25.545 14.8626Z" fill="#185CFF"/>
</svg>
