<svg width="57" height="56" viewBox="0 0 57 56" fill="none" xmlns="http://www.w3.org/2000/svg">
<path d="M19.5864 46.4139C19.9615 46.7889 20.4701 46.9995 21.0004 46.9995C21.5308 46.9995 22.0394 46.7889 22.4144 46.4139L39.9144 28.9139C40.2894 28.5389 40.5 28.0302 40.5 27.4999C40.5 26.9696 40.2894 26.461 39.9144 26.0859L22.4144 8.58592C22.2299 8.3949 22.0092 8.24253 21.7652 8.13772C21.5212 8.0329 21.2588 7.97772 20.9932 7.97542C20.7277 7.97311 20.4643 8.02371 20.2185 8.12427C19.9727 8.22484 19.7494 8.37334 19.5616 8.56113C19.3739 8.74891 19.2253 8.97222 19.1248 9.21801C19.0242 9.4638 18.9736 9.72716 18.9759 9.99272C18.9782 10.2583 19.0334 10.5207 19.1382 10.7647C19.243 11.0087 19.3954 11.2294 19.5864 11.4139L35.6724 27.4999L19.5864 43.5859C19.2115 43.961 19.0009 44.4696 19.0009 44.9999C19.0009 45.5302 19.2115 46.0389 19.5864 46.4139Z" fill="#185CFF"/>
</svg>
