<svg width="67" height="67" viewBox="0 0 67 67" fill="none" xmlns="http://www.w3.org/2000/svg">
<path d="M44.1645 55.531C43.7157 55.9796 43.1072 56.2316 42.4727 56.2316C41.8382 56.2316 41.2297 55.9796 40.781 55.531L19.8435 34.5935C19.3949 34.1448 19.1429 33.5363 19.1429 32.9018C19.1429 32.2673 19.3949 31.6587 19.8435 31.21L40.781 10.2725C41.0017 10.044 41.2657 9.86167 41.5577 9.73626C41.8496 9.61085 42.1636 9.54484 42.4813 9.54208C42.799 9.53932 43.1141 9.59986 43.4082 9.72018C43.7023 9.84049 43.9694 10.0182 44.1941 10.2428C44.4188 10.4675 44.5965 10.7347 44.7168 11.0288C44.8371 11.3228 44.8976 11.6379 44.8949 11.9556C44.8921 12.2734 44.8261 12.5874 44.7007 12.8793C44.5753 13.1712 44.393 13.4353 44.1645 13.656L24.9187 32.9018L44.1645 52.1475C44.613 52.5962 44.8651 53.2048 44.8651 53.8393C44.8651 54.4738 44.613 55.0823 44.1645 55.531Z" fill="#185CFF"/>
</svg>
