<svg width="57" height="56" viewBox="0 0 57 56" fill="none" xmlns="http://www.w3.org/2000/svg">
<path d="M37.4136 46.4139C37.0385 46.7889 36.5299 46.9995 35.9996 46.9995C35.4692 46.9995 34.9606 46.7889 34.5856 46.4139L17.0856 28.9139C16.7106 28.5389 16.5 28.0302 16.5 27.4999C16.5 26.9696 16.7106 26.461 17.0856 26.0859L34.5856 8.58592C34.7701 8.3949 34.9908 8.24253 35.2348 8.13772C35.4788 8.0329 35.7412 7.97772 36.0068 7.97542C36.2723 7.97311 36.5357 8.02371 36.7815 8.12427C37.0273 8.22484 37.2506 8.37334 37.4384 8.56113C37.6261 8.74891 37.7747 8.97222 37.8752 9.21801C37.9758 9.4638 38.0264 9.72716 38.0241 9.99272C38.0218 10.2583 37.9666 10.5207 37.8618 10.7647C37.757 11.0087 37.6046 11.2294 37.4136 11.4139L21.3276 27.4999L37.4136 43.5859C37.7885 43.961 37.9991 44.4696 37.9991 44.9999C37.9991 45.5302 37.7885 46.0389 37.4136 46.4139Z" fill="#185CFF"/>
</svg>
