<svg width="24" height="24" viewBox="0 0 24 24" fill="none" xmlns="http://www.w3.org/2000/svg">
<path d="M20.3659 12.2875C20.3662 12.1578 20.3376 12.0296 20.2824 11.9123C20.2271 11.795 20.1464 11.6914 20.0462 11.609L16.6583 8.22799C16.4966 8.06647 16.2774 7.97575 16.0488 7.97575C15.8203 7.97575 15.6011 8.06647 15.4393 8.22799C15.3594 8.30787 15.2961 8.40271 15.2528 8.50709C15.2096 8.61147 15.1873 8.72335 15.1873 8.83634C15.1873 8.94932 15.2096 9.0612 15.2528 9.16558C15.2961 9.26997 15.3594 9.36481 15.4393 9.44469L17.415 11.425L5.12845 11.425C4.8997 11.425 4.68032 11.5159 4.51857 11.6776C4.35682 11.8394 4.26595 12.0587 4.26595 12.2875C4.26595 12.5162 4.35682 12.7356 4.51857 12.8974C4.68032 13.0591 4.8997 13.15 5.12845 13.15L17.4265 13.15L15.4336 15.1303C15.3535 15.2102 15.29 15.3051 15.2466 15.4096C15.2033 15.5141 15.181 15.6261 15.181 15.7392C15.181 15.8523 15.2033 15.9643 15.2466 16.0688C15.29 16.1733 15.3535 16.2682 15.4336 16.3481C15.5137 16.4283 15.6088 16.4919 15.7135 16.5352C15.8182 16.5786 15.9304 16.601 16.0437 16.601C16.157 16.601 16.2692 16.5786 16.3739 16.5352C16.4785 16.4919 16.5736 16.4283 16.6537 16.3481L20.1129 12.8935C20.1937 12.8147 20.2577 12.7204 20.3012 12.6163C20.3446 12.5121 20.3667 12.4003 20.3659 12.2875V12.2875Z" fill="#185CFF"/>
</svg>
