<svg width="24" height="24" viewBox="0 0 24 24" fill="none" xmlns="http://www.w3.org/2000/svg">
<path d="M20.366 12.2875C20.3662 12.1578 20.3377 12.0296 20.2824 11.9123C20.2271 11.795 20.1464 11.6914 20.0463 11.609L16.6584 8.22799C16.4966 8.06647 16.2774 7.97574 16.0489 7.97574C15.8203 7.97574 15.6011 8.06647 15.4394 8.22799C15.3595 8.30787 15.2961 8.40271 15.2528 8.50709C15.2096 8.61147 15.1873 8.72335 15.1873 8.83634C15.1873 8.94932 15.2096 9.0612 15.2528 9.16558C15.2961 9.26997 15.3595 9.36481 15.4394 9.44469L17.4151 11.425L5.12846 11.425C4.89971 11.425 4.68033 11.5159 4.51858 11.6776C4.35683 11.8394 4.26596 12.0587 4.26596 12.2875C4.26596 12.5162 4.35683 12.7356 4.51858 12.8974C4.68033 13.0591 4.89971 13.15 5.12846 13.15L17.4266 13.15L15.4336 15.1303C15.3535 15.2102 15.29 15.3051 15.2467 15.4096C15.2033 15.5141 15.181 15.6261 15.181 15.7392C15.181 15.8523 15.2033 15.9643 15.2467 16.0688C15.29 16.1733 15.3535 16.2682 15.4336 16.3481C15.5137 16.4283 15.6088 16.4919 15.7135 16.5352C15.8182 16.5786 15.9304 16.601 16.0437 16.601C16.157 16.601 16.2692 16.5786 16.3739 16.5352C16.4786 16.4919 16.5737 16.4283 16.6538 16.3481L20.113 12.8935C20.1937 12.8147 20.2577 12.7204 20.3012 12.6163C20.3447 12.5121 20.3667 12.4003 20.366 12.2875Z" fill="#185CFF"/>
</svg>
