<svg width="56" height="56" viewBox="0 0 56 56" fill="none" xmlns="http://www.w3.org/2000/svg">
<path d="M36.9136 46.414C36.5385 46.7889 36.0299 46.9996 35.4996 46.9996C34.9692 46.9996 34.4606 46.7889 34.0856 46.414L16.5856 28.914C16.2106 28.5389 16 28.0303 16 27.5C16 26.9697 16.2106 26.461 16.5856 26.086L34.0856 8.58598C34.2701 8.39496 34.4908 8.24259 34.7348 8.13778C34.9788 8.03296 35.2412 7.97779 35.5068 7.97548C35.7723 7.97317 36.0357 8.02377 36.2815 8.12434C36.5273 8.2249 36.7506 8.3734 36.9384 8.56119C37.1261 8.74897 37.2747 8.97228 37.3752 9.21807C37.4758 9.46386 37.5264 9.72722 37.5241 9.99278C37.5218 10.2583 37.4666 10.5208 37.3618 10.7648C37.257 11.0088 37.1046 11.2295 36.9136 11.414L20.8276 27.5L36.9136 43.586C37.2885 43.961 37.4991 44.4697 37.4991 45C37.4991 45.5303 37.2885 46.0389 36.9136 46.414Z" fill="#185CFF"/>
</svg>
