<svg width="67" height="67" viewBox="0 0 67 67" fill="none" xmlns="http://www.w3.org/2000/svg">
<path d="M22.8355 55.531C23.2843 55.9796 23.8928 56.2316 24.5273 56.2316C25.1618 56.2316 25.7703 55.9796 26.219 55.531L47.1565 34.5935C47.6051 34.1448 47.8571 33.5363 47.8571 32.9018C47.8571 32.2673 47.6051 31.6587 47.1565 31.21L26.219 10.2725C25.9983 10.044 25.7343 9.86167 25.4423 9.73626C25.1504 9.61085 24.8364 9.54484 24.5187 9.54208C24.201 9.53932 23.8859 9.59986 23.5918 9.72018C23.2977 9.84049 23.0306 10.0182 22.8059 10.2428C22.5812 10.4675 22.4035 10.7347 22.2832 11.0288C22.1629 11.3228 22.1024 11.6379 22.1051 11.9556C22.1079 12.2734 22.1739 12.5874 22.2993 12.8793C22.4247 13.1712 22.607 13.4353 22.8355 13.656L42.0813 32.9018L22.8355 52.1475C22.387 52.5962 22.135 53.2048 22.135 53.8393C22.135 54.4738 22.387 55.0823 22.8355 55.531Z" fill="#185CFF"/>
</svg>
