<svg width="24" height="24" viewBox="0 0 24 24" fill="none" xmlns="http://www.w3.org/2000/svg">
<path d="M20.3659 12.2875C20.3661 12.1578 20.3376 12.0296 20.2823 11.9123C20.227 11.795 20.1464 11.6914 20.0462 11.609L16.6583 8.22799C16.4966 8.06647 16.2773 7.97575 16.0488 7.97575C15.8202 7.97575 15.601 8.06647 15.4393 8.22799C15.3594 8.30787 15.296 8.40271 15.2527 8.50709C15.2095 8.61147 15.1872 8.72335 15.1872 8.83634C15.1872 8.94932 15.2095 9.0612 15.2527 9.16558C15.296 9.26997 15.3594 9.36481 15.4393 9.44469L17.415 11.425L5.12837 11.425C4.89962 11.425 4.68024 11.5159 4.51849 11.6776C4.35674 11.8394 4.26587 12.0587 4.26587 12.2875C4.26587 12.5162 4.35674 12.7356 4.51849 12.8974C4.68024 13.0591 4.89962 13.15 5.12837 13.15L17.4265 13.15L15.4335 15.1303C15.3534 15.2102 15.2899 15.3051 15.2466 15.4096C15.2032 15.5141 15.1809 15.6261 15.1809 15.7392C15.1809 15.8523 15.2032 15.9643 15.2466 16.0688C15.2899 16.1733 15.3534 16.2682 15.4335 16.3481C15.5136 16.4283 15.6087 16.4919 15.7134 16.5352C15.8181 16.5786 15.9303 16.601 16.0436 16.601C16.1569 16.601 16.2691 16.5786 16.3738 16.5352C16.4785 16.4919 16.5736 16.4283 16.6537 16.3481L20.1129 12.8935C20.1936 12.8147 20.2576 12.7204 20.3011 12.6163C20.3446 12.5121 20.3666 12.4003 20.3659 12.2875V12.2875Z" fill="#185CFF"/>
</svg>
