<svg width="28" height="29" viewBox="0 0 28 29" fill="none" xmlns="http://www.w3.org/2000/svg">
<path d="M22.9588 7.83067C23.3036 8.13671 23.5048 8.55879 23.5182 9.0041C23.5316 9.4494 23.3561 9.88149 23.0304 10.2053L12.8914 20.2865C12.7271 20.4496 12.5296 20.5801 12.3107 20.6703C12.0917 20.7606 11.8557 20.8087 11.6167 20.8118C11.3776 20.8149 11.1403 20.773 10.9187 20.6886C10.6972 20.6041 10.4959 20.4788 10.3268 20.3201L4.95911 15.2795C4.64306 14.961 4.471 14.5398 4.47918 14.1045C4.48735 13.6692 4.67513 13.2539 5.00295 12.946C5.33077 12.6382 5.77304 12.4619 6.23657 12.4542C6.7001 12.4465 7.14872 12.6081 7.4879 12.9049L11.5554 16.7223L20.43 7.89788C20.7559 7.57416 21.2054 7.38522 21.6796 7.37262C22.1538 7.36002 22.614 7.52478 22.9588 7.83067Z" fill="#185CFF"/>
</svg>
