<svg width="68" height="67" viewBox="0 0 68 67" fill="none" xmlns="http://www.w3.org/2000/svg">
<path d="M23.2355 55.531C23.6843 55.9796 24.2928 56.2316 24.9273 56.2316C25.5618 56.2316 26.1703 55.9796 26.619 55.531L47.5565 34.5935C48.0051 34.1448 48.2571 33.5363 48.2571 32.9018C48.2571 32.2673 48.0051 31.6587 47.5565 31.21L26.619 10.2725C26.3983 10.044 26.1343 9.86167 25.8423 9.73626C25.5504 9.61085 25.2364 9.54484 24.9187 9.54208C24.601 9.53932 24.2859 9.59986 23.9918 9.72018C23.6977 9.84049 23.4306 10.0182 23.2059 10.2428C22.9812 10.4675 22.8035 10.7347 22.6832 11.0288C22.5629 11.3228 22.5024 11.6379 22.5051 11.9556C22.5079 12.2734 22.5739 12.5874 22.6993 12.8793C22.8247 13.1712 23.007 13.4353 23.2355 13.656L42.4813 32.9018L23.2355 52.1475C22.787 52.5962 22.535 53.2048 22.535 53.8393C22.535 54.4738 22.787 55.0823 23.2355 55.531Z" fill="#185CFF"/>
</svg>
