<svg width="28" height="29" viewBox="0 0 28 29" fill="none" xmlns="http://www.w3.org/2000/svg">
<path d="M22.9589 7.83067C23.3037 8.13671 23.5049 8.55879 23.5183 9.0041C23.5317 9.4494 23.3563 9.88149 23.0305 10.2053L12.8915 20.2865C12.7272 20.4496 12.5297 20.5801 12.3108 20.6703C12.0918 20.7606 11.8558 20.8087 11.6168 20.8118C11.3777 20.8149 11.1404 20.773 10.9188 20.6886C10.6973 20.6041 10.496 20.4788 10.3269 20.3201L4.95922 15.2795C4.64316 14.961 4.4711 14.5398 4.47928 14.1045C4.48746 13.6692 4.67524 13.2539 5.00306 12.946C5.33088 12.6382 5.77314 12.4619 6.23668 12.4542C6.70021 12.4465 7.14882 12.6081 7.488 12.9049L11.5555 16.7223L20.4302 7.89788C20.7561 7.57416 21.2055 7.38522 21.6797 7.37262C22.1539 7.36002 22.6141 7.52478 22.9589 7.83067Z" fill="#185CFF"/>
</svg>
