<svg width="32" height="33" viewBox="0 0 32 33" fill="none" xmlns="http://www.w3.org/2000/svg">
<path d="M11.0573 26.7759C10.8074 26.5258 10.6669 26.1868 10.6669 25.8332C10.6669 25.4797 10.8074 25.1406 11.0573 24.8905L19.448 16.4999L11.0573 8.10921C10.93 7.98622 10.8284 7.83909 10.7585 7.67642C10.6886 7.51374 10.6519 7.33878 10.6503 7.16175C10.6488 6.98471 10.6825 6.80914 10.7496 6.64527C10.8166 6.48141 10.9156 6.33254 11.0408 6.20735C11.166 6.08216 11.3149 5.98316 11.4787 5.91611C11.6426 5.84907 11.8182 5.81534 11.9952 5.81688C12.1722 5.81841 12.3472 5.8552 12.5099 5.92508C12.6725 5.99495 12.8197 6.09653 12.9427 6.22388L22.276 15.5572C22.526 15.8072 22.6664 16.1463 22.6664 16.4999C22.6664 16.8534 22.526 17.1925 22.276 17.4425L12.9427 26.7759C12.6926 27.0258 12.3535 27.1663 12 27.1663C11.6464 27.1663 11.3074 27.0258 11.0573 26.7759Z" fill="#185CFF"/>
</svg>
