<svg width="57" height="57" viewBox="0 0 57 57" fill="none" xmlns="http://www.w3.org/2000/svg">
<path d="M47.2428 19.4272C47.6244 19.809 47.8388 20.3267 47.8388 20.8665C47.8388 21.4063 47.6244 21.924 47.2428 22.3057L29.4303 40.1182C29.0485 40.4998 28.5308 40.7142 27.991 40.7142C27.4512 40.7142 26.9335 40.4998 26.5518 40.1182L8.73928 22.3057C8.54485 22.1179 8.38976 21.8933 8.28307 21.6449C8.17638 21.3966 8.12022 21.1294 8.11787 20.8591C8.11553 20.5888 8.16703 20.3208 8.26939 20.0706C8.37175 19.8204 8.52291 19.5931 8.71404 19.402C8.90518 19.2108 9.13247 19.0597 9.38266 18.9573C9.63284 18.855 9.9009 18.8034 10.1712 18.8058C10.4415 18.8081 10.7086 18.8643 10.957 18.971C11.2054 19.0777 11.43 19.2328 11.6178 19.4272L27.991 35.8005L44.3643 19.4272C44.746 19.0456 45.2637 18.8312 45.8035 18.8312C46.3433 18.8312 46.861 19.0456 47.2428 19.4272Z" fill="#185CFF"/>
</svg>
