<svg width="57" height="58" viewBox="0 0 57 58" fill="none" xmlns="http://www.w3.org/2000/svg">
<path d="M47.2428 38.1728C47.6244 37.791 47.8388 37.2733 47.8388 36.7335C47.8388 36.1937 47.6244 35.676 47.2428 35.2943L29.4303 17.4818C29.0485 17.1001 28.5308 16.8857 27.991 16.8857C27.4512 16.8857 26.9335 17.1001 26.5518 17.4818L8.73928 35.2943C8.54485 35.4821 8.38976 35.7067 8.28307 35.9551C8.17638 36.2034 8.12022 36.4705 8.11787 36.7408C8.11553 37.0112 8.16703 37.2792 8.26939 37.5294C8.37175 37.7796 8.52291 38.0069 8.71404 38.198C8.90518 38.3891 9.13247 38.5403 9.38266 38.6427C9.63284 38.745 9.9009 38.7965 10.1712 38.7942C10.4415 38.7918 10.7086 38.7357 10.957 38.629C11.2054 38.5223 11.43 38.3672 11.6178 38.1728L27.991 21.7995L44.3643 38.1728C44.746 38.5544 45.2637 38.7688 45.8035 38.7688C46.3433 38.7688 46.861 38.5544 47.2428 38.1728Z" fill="#185CFF"/>
</svg>
